<svg width="512" height="512" viewBox="0 0 512 512" fill="none" xmlns="http://www.w3.org/2000/svg">
    <defs>
        <!-- Primary Brand Gradient (Gray-700 to Gray-800 - Dark Monochrome) -->
        <linearGradient id="brandGradient1" x1="100" y1="100" x2="400" y2="400" gradientUnits="userSpaceOnUse">
             <stop offset="0%" stop-color="#374151" /> <!-- Gray-700 -->
            <stop offset="100%" stop-color="#1f2937" /> <!-- Gray-800 -->
        </linearGradient>
        
        <!-- Secondary Brand Gradient (Gray-600 to Gray-700) -->
        <linearGradient id="brandGradient2" x1="100" y1="400" x2="400" y2="100" gradientUnits="userSpaceOnUse">
            <stop offset="0%" stop-color="#4b5563" /> <!-- Gray-600 -->
            <stop offset="100%" stop-color="#374151" /> <!-- Gray-700 -->
        </linearGradient>

        <!-- Subtle Glow Filter -->
        <filter id="glow" x="-20%" y="-20%" width="140%" height="140%">
            <feGaussianBlur stdDeviation="6" result="blur" />
            <feComposite in="SourceGraphic" in2="blur" operator="over" />
        </filter>
        
        <!-- Highlight Gradient for depth -->
        <linearGradient id="highlightGradient" x1="0" y1="0" x2="0" y2="1">
            <stop offset="0%" stop-color="white" stop-opacity="0.15" />
            <stop offset="100%" stop-color="white" stop-opacity="0" />
        </linearGradient>
    </defs>

    <!-- Logo Mark: The "Sparring S" / Dialogue Interchange -->
    <g transform="translate(256, 256) scale(0.85)">
        
        <!-- Shape 1: Top Right (The AI/Interviewer) -->
        <path d="M 0 -40
                 C 80 -40, 140 -80, 140 -150
                 C 140 -205, 95 -250, 40 -250
                 C -60 -250, -140 -160, -140 -60
                 C -140 -10, -100 20, -50 40
                 L 0 -40 Z"
              fill="url(#brandGradient1)"
              stroke="#6b7280"
              stroke-width="1"
              style="filter: url(#glow);"
        />
        
        <!-- Shape 2: Bottom Left (The User/Candidate) -->
        <path d="M 0 40
                 C -80 40, -140 80, -140 150
                 C -140 205, -95 250, -40 250
                 C 60 250, 140 160, 140 60
                 C 140 10, 100 -20, 50 -40
                 L 0 40 Z"
              fill="url(#brandGradient2)"
              stroke="#9ca3af"
              stroke-width="1"
              style="filter: url(#glow);"
        />

        <!-- Polished Overlay for Glassmorphism feel -->
         <path d="M 0 -40
                 C 80 -40, 140 -80, 140 -150
                 C 140 -180, 120 -220, 40 -250
                 C 100 -220, 120 -180, 120 -150
                 C 120 -100, 80 -60, 0 -60
                 Z"
              fill="url(#highlightGradient)"
        />
         <path d="M 0 40
                 C -80 40, -140 80, -140 150
                 C -140 180, -120 220, -40 250
                 C -100 220, -120 180, -120 150
                 C -120 100, -80 60, 0 60
                 Z"
              fill="url(#highlightGradient)"
        />
    </g>
</svg>
